# xmcd CD database file
#
# Track frame offsets:
#	150
#	10187
#	22463
#	32493
#	45179
#	54203
#	63970
#	74833
#	84051
#	93945
#	105331
#	114533
#	125153
#	135518
#	143103
#	155064
#	163801
#	175030
#	184902
#	192524
#	200866
#	209003
#	221462
#	233202
#	243946
#
# Disc length: 3409 seconds
#
# Revision: 1
# Processed by: cddbd v1.5.2PL0 Copyright (c) Steve Scherf et al.
# Submitted via: CDex 1.51
#
DISCID=670d4f19
DTITLE=Johnny Cash - Star Series 20
DYEAR=1900
DGENRE=Country
TTITLE0=Hey Porter
TTITLE1=I Walk The Line
TTITLE2=Get Rhythm
TTITLE3=Folsom Prison Blues
TTITLE4=Wreck Of The Old '97
TTITLE5=Rock Island Line
TTITLE6=Cry Cry Cry
TTITLE7=Luther Played The Boogie
TTITLE8=Ballad Of A Teenage Queen
TTITLE9=Big River
TTITLE10=Blue Train
TTITLE11=Train Of Love
TTITLE12=There You Go
TTITLE13=Come In Stranger
TTITLE14=You're The Nearest Thing To Heaven
TTITLE15=Katy Too
TTITLE16=Oh Lonesome Me
TTITLE17=Born To Lose
TTITLE18=Hey Good Looking
TTITLE19=Country Boy
TTITLE20=Sugartime
TTITLE21=Next In Line
TTITLE22=So Doggone Lonesome
TTITLE23=Wide Open Road
TTITLE24=Doin' My Time
EXTD=
EXTT0=
EXTT1=
EXTT2=
EXTT3=
EXTT4=
EXTT5=
EXTT6=
EXTT7=
EXTT8=
EXTT9=
EXTT10=
EXTT11=
EXTT12=
EXTT13=
EXTT14=
EXTT15=
EXTT16=
EXTT17=
EXTT18=
EXTT19=
EXTT20=
EXTT21=
EXTT22=
EXTT23=
EXTT24=
PLAYORDER=
